<?xml version="1.0" encoding="utf-8" standalone="yes"?>
<!DOCTYPE svg PUBLIC "-//W3C//DTD SVG 1.1//EN" "http://www.w3.org/Graphics/SVG/1.1/DTD/svg11.dtd">
<svg xmlns="http://www.w3.org/2000/svg" xmlns:xlink="http://www.w3.org/1999/xlink" xmlns:dc="http://purl.org/dc/elements/1.1/" xmlns:cc="http://web.resource.org/cc/" xmlns:rdf="http://www.w3.org/1999/02/22-rdf-syntax-ns#" xmlns:sodipodi="http://sodipodi.sourceforge.net/DTD/sodipodi-0.dtd" xmlns:inkscape="http://www.inkscape.org/namespaces/inkscape" height="200px" style="zoom: 1;" cursor="default" id="svg_document" width="250px" baseProfile="full" version="1.1" preserveAspectRatio="xMidYMid meet" viewBox="0 0 250 200"><title id="svg_document_title">Untitled.svg</title><defs id="svg_document_defs"></defs><g id="main_group"></g><path stroke="#000000" id="path1" stroke-width="7px" d="M40,42 C25,6 42,4 58,29 C74,54 77,59 90,70 C103,81 125,67 133,67 C134,67 135.171875,67.09375 136.439453,67.287109 C137.707031,67.480469 139.070312,67.773438 140.453125,68.171875 C143.21875,68.96875 146.0625,70.1875 148.375,71.875 C153,75.25 155.5,80.5 151,88 C142,103 169,94 188,113 C207,132 200,124 212,136 C224,148 228,156 234,166 C240,176 242,185 217,182 C192,179 188,177 180,176 C172,175 167,173 134,157 C101,141 122,152 77,145 C32,138 83,122 81,119 C79,116 72,105 68,94 C64,83 56,100 34,101 C12,102 2,88 14,83 C26,78 45,68 46,59 C47,50 39,39 39,39 C39,39 55,78 40,42  Z  Z " fill="#419bbd" transform=""></path></svg>