<?xml version="1.0" encoding="utf-8" standalone="yes"?>
<!DOCTYPE svg PUBLIC "-//W3C//DTD SVG 1.1//EN" "http://www.w3.org/Graphics/SVG/1.1/DTD/svg11.dtd">
<svg xmlns="http://www.w3.org/2000/svg" xmlns:xlink="http://www.w3.org/1999/xlink" xmlns:dc="http://purl.org/dc/elements/1.1/" xmlns:cc="http://web.resource.org/cc/" xmlns:rdf="http://www.w3.org/1999/02/22-rdf-syntax-ns#" xmlns:sodipodi="http://sodipodi.sourceforge.net/DTD/sodipodi-0.dtd" xmlns:inkscape="http://www.inkscape.org/namespaces/inkscape" height="200px" style="zoom: 1;" cursor="default" id="svg_document" width="250px" baseProfile="full" version="1.1" preserveAspectRatio="xMidYMid meet" viewBox="0 0 250 200"><title id="svg_document_title">Untitled.svg</title><defs id="svg_document_defs"></defs><g id="main_group"></g><path stroke="#000000" id="path1" stroke-width="7px" d="M43,41 C28,5 45,3 61,28 C77,53 80,58 93,69 C106,80 128,66 136,66 C138,66 140.6875,66.375 143.453125,67.171875 C146.21875,67.96875 149.0625,69.1875 151.375,70.875 C156,74.25 158.5,79.5 154,87 C145,102 172,93 191,112 C210,131 203,123 215,135 C227,147 231,155 237,165 C243,175 245,184 220,181 C195,178 190,180 182,179 C174,178 165,176 133,160 C101,144 125,151 80,144 C35,137 86,121 84,118 C82,115 75,104 71,93 C67,82 59,99 37,100 C15,101 5,87 17,82 C29,77 48,67 49,58 C50,49 42,38 42,38 C42,38 58,77 43,41  Z  Z " fill="#cf3b49" transform=""></path></svg>